<svg xmlns="http://www.w3.org/2000/svg" viewBox="0 0 132.53 64.45"><defs><style>.cls-1{fill:#1a87d8;}</style></defs><g id="Layer_2" data-name="Layer 2"><g id="Layer_1-2" data-name="Layer 1"><g id="Layer_1-3" data-name="Layer_1"><path class="cls-1" d="M58.84,46.94H5.31V5.31H75.64V12.5H81V2.66A2.66,2.66,0,0,0,78.3,0H2.66A2.66,2.66,0,0,0,0,2.66V49.6a2.66,2.66,0,0,0,2.66,2.65H58.84V46.94Z"/><path class="cls-1" d="M43.14,49.59a2.66,2.66,0,0,0-5.32,0V60.65a2.66,2.66,0,0,0,5.32,0Z"/><path class="cls-1" d="M28.74,59.14a2.66,2.66,0,0,0,0,5.31H52.21a2.66,2.66,0,1,0,0-5.31Z"/><path class="cls-1" d="M3.67,37.53a1.68,1.68,0,0,0,0,3.27H58.84V37.53Z"/><path class="cls-1" d="M65.36,13.83h35.47A5.21,5.21,0,0,1,106,19V59.26a5.21,5.21,0,0,1-5.2,5.19H65.36a5.19,5.19,0,0,1-5.19-5.19V19a5.19,5.19,0,0,1,5.19-5.19Zm35.35,5.31H65.48v40h35.23v-40Z"/><path class="cls-1" d="M62.82,51a1.33,1.33,0,1,0,0,2.66h40.54a1.33,1.33,0,1,0,0-2.66Z"/><circle class="cls-1" cx="83.1" cy="56.59" r="1.19"/><path class="cls-1" d="M79.25,20.56a1,1,0,0,0,0,2h7.69a1,1,0,0,0,0-2Z"/><path class="cls-1" d="M111.73,26.05h16.94a3.87,3.87,0,0,1,2.72,1.13l-1.87,1.88,1.88-1.88.23.26a3.86,3.86,0,0,1,.9,2.47V60.58a3.83,3.83,0,0,1-1.13,2.72l-1.88-1.86,1.88,1.87a1.86,1.86,0,0,1-.26.23,3.81,3.81,0,0,1-2.47.91H111.73A3.84,3.84,0,0,1,109,63.31l1.87-1.87L109,63.31a2.85,2.85,0,0,1-.23-.26,3.84,3.84,0,0,1-.9-2.47V29.92A3.83,3.83,0,0,1,109,27.2l1.88,1.86L109,27.18a2.75,2.75,0,0,1,.26-.22A3.79,3.79,0,0,1,111.73,26.05Zm15.49,5.32h-14V59.14h14V31.37Z"/><path class="cls-1" d="M110.52,51.69a1.33,1.33,0,0,0,0,2.66h19.36a1.33,1.33,0,1,0,0-2.66Z"/><circle class="cls-1" cx="120.2" cy="56.59" r="1.19"/><path class="cls-1" d="M118.47,32.94a1,1,0,0,0,0,2h3.46a1,1,0,0,0,0-2Z"/></g></g></g></svg>